<mxfile host="app.diagrams.net" modified="2021-06-11T04:04:50.442Z" agent="5.0 (Macintosh; Intel Mac OS X 10_14_6) AppleWebKit/537.36 (KHTML, like Gecko) Chrome/91.0.4472.77 Safari/537.36" etag="BaiF97V_jBRM8IFw28sK" version="14.7.6" type="github">
  <diagram id="0XasfyNpOzrWaeMzdZiy" name="第 1 页">
    <mxGraphModel dx="1426" dy="803" grid="1" gridSize="10" guides="1" tooltips="1" connect="1" arrows="1" fold="1" page="1" pageScale="1" pageWidth="1169" pageHeight="1654" math="0" shadow="0">
      <root>
        <mxCell id="0" />
        <mxCell id="1" parent="0" />
        <mxCell id="ag0wjQPCO7RSuzlzPuYA-11" style="edgeStyle=orthogonalEdgeStyle;rounded=0;orthogonalLoop=1;jettySize=auto;html=1;entryX=0.5;entryY=0;entryDx=0;entryDy=0;fillColor=#ffe6cc;strokeColor=#d79b00;fontSize=19;" edge="1" parent="1" source="ag0wjQPCO7RSuzlzPuYA-2" target="ag0wjQPCO7RSuzlzPuYA-10">
          <mxGeometry relative="1" as="geometry" />
        </mxCell>
        <mxCell id="ag0wjQPCO7RSuzlzPuYA-17" style="edgeStyle=orthogonalEdgeStyle;rounded=0;orthogonalLoop=1;jettySize=auto;html=1;entryX=1;entryY=0.5;entryDx=0;entryDy=0;fillColor=#ffe6cc;strokeColor=#d79b00;fontSize=19;" edge="1" parent="1" source="ag0wjQPCO7RSuzlzPuYA-2" target="ag0wjQPCO7RSuzlzPuYA-15">
          <mxGeometry relative="1" as="geometry">
            <Array as="points">
              <mxPoint x="300" y="300" />
              <mxPoint x="300" y="260" />
            </Array>
          </mxGeometry>
        </mxCell>
        <mxCell id="ag0wjQPCO7RSuzlzPuYA-18" style="edgeStyle=orthogonalEdgeStyle;rounded=0;orthogonalLoop=1;jettySize=auto;html=1;entryX=1;entryY=0.5;entryDx=0;entryDy=0;fillColor=#ffe6cc;strokeColor=#d79b00;fontSize=19;" edge="1" parent="1" source="ag0wjQPCO7RSuzlzPuYA-2" target="ag0wjQPCO7RSuzlzPuYA-16">
          <mxGeometry relative="1" as="geometry">
            <Array as="points">
              <mxPoint x="300" y="300" />
              <mxPoint x="300" y="350" />
            </Array>
          </mxGeometry>
        </mxCell>
        <mxCell id="ag0wjQPCO7RSuzlzPuYA-19" style="edgeStyle=orthogonalEdgeStyle;rounded=0;orthogonalLoop=1;jettySize=auto;html=1;entryX=0;entryY=0.5;entryDx=0;entryDy=0;fillColor=#ffe6cc;strokeColor=#d79b00;fontSize=19;" edge="1" parent="1" source="ag0wjQPCO7RSuzlzPuYA-2" target="ag0wjQPCO7RSuzlzPuYA-8">
          <mxGeometry relative="1" as="geometry" />
        </mxCell>
        <mxCell id="ag0wjQPCO7RSuzlzPuYA-20" style="edgeStyle=orthogonalEdgeStyle;rounded=0;orthogonalLoop=1;jettySize=auto;html=1;entryX=0;entryY=0.5;entryDx=0;entryDy=0;fillColor=#ffe6cc;strokeColor=#d79b00;fontSize=19;" edge="1" parent="1" source="ag0wjQPCO7RSuzlzPuYA-2" target="ag0wjQPCO7RSuzlzPuYA-5">
          <mxGeometry relative="1" as="geometry">
            <Array as="points">
              <mxPoint x="710" y="300" />
              <mxPoint x="710" y="220" />
            </Array>
          </mxGeometry>
        </mxCell>
        <mxCell id="ag0wjQPCO7RSuzlzPuYA-21" style="edgeStyle=orthogonalEdgeStyle;rounded=0;orthogonalLoop=1;jettySize=auto;html=1;entryX=0;entryY=0.5;entryDx=0;entryDy=0;fillColor=#ffe6cc;strokeColor=#d79b00;fontSize=19;" edge="1" parent="1" source="ag0wjQPCO7RSuzlzPuYA-2" target="ag0wjQPCO7RSuzlzPuYA-12">
          <mxGeometry relative="1" as="geometry">
            <Array as="points">
              <mxPoint x="710" y="300" />
              <mxPoint x="710" y="380" />
            </Array>
          </mxGeometry>
        </mxCell>
        <mxCell id="ag0wjQPCO7RSuzlzPuYA-2" value="&lt;span style=&quot;font-size: 17px;&quot;&gt;医院基础信息&lt;/span&gt;&lt;br style=&quot;font-size: 17px;&quot;&gt;&lt;span style=&quot;font-size: 17px;&quot;&gt;(ACP统一维护)&lt;/span&gt;" style="shape=cylinder3;whiteSpace=wrap;html=1;boundedLbl=1;backgroundOutline=1;size=15;fillColor=#dae8fc;strokeColor=#6c8ebf;fontSize=17;" vertex="1" parent="1">
          <mxGeometry x="440" y="240" width="100" height="120" as="geometry" />
        </mxCell>
        <mxCell id="ag0wjQPCO7RSuzlzPuYA-5" value="子龙" style="whiteSpace=wrap;html=1;strokeColor=#d79b00;fillColor=#ffe6cc;rounded=1;fontSize=19;" vertex="1" parent="1">
          <mxGeometry x="770" y="190" width="120" height="60" as="geometry" />
        </mxCell>
        <mxCell id="ag0wjQPCO7RSuzlzPuYA-8" value="阿闻" style="whiteSpace=wrap;html=1;strokeColor=#d79b00;fillColor=#ffe6cc;rounded=1;fontSize=19;" vertex="1" parent="1">
          <mxGeometry x="770" y="270" width="120" height="60" as="geometry" />
        </mxCell>
        <mxCell id="ag0wjQPCO7RSuzlzPuYA-10" value="仲谋" style="whiteSpace=wrap;html=1;strokeColor=#d79b00;fillColor=#ffe6cc;rounded=1;fontSize=19;" vertex="1" parent="1">
          <mxGeometry x="430" y="520" width="120" height="60" as="geometry" />
        </mxCell>
        <mxCell id="ag0wjQPCO7RSuzlzPuYA-12" value="数字化运营" style="whiteSpace=wrap;html=1;strokeColor=#d79b00;fillColor=#ffe6cc;rounded=1;fontSize=19;" vertex="1" parent="1">
          <mxGeometry x="770" y="350" width="120" height="60" as="geometry" />
        </mxCell>
        <mxCell id="ag0wjQPCO7RSuzlzPuYA-14" value="本地生活" style="whiteSpace=wrap;html=1;strokeColor=#d79b00;fillColor=#ffe6cc;rounded=1;fontSize=19;" vertex="1" parent="1">
          <mxGeometry x="1020" y="270" width="120" height="60" as="geometry" />
        </mxCell>
        <mxCell id="ag0wjQPCO7RSuzlzPuYA-15" value="NC" style="whiteSpace=wrap;html=1;strokeColor=#d79b00;fillColor=#ffe6cc;rounded=1;fontSize=19;" vertex="1" parent="1">
          <mxGeometry x="150" y="230" width="120" height="60" as="geometry" />
        </mxCell>
        <mxCell id="ag0wjQPCO7RSuzlzPuYA-16" value="HR" style="whiteSpace=wrap;html=1;strokeColor=#d79b00;fillColor=#ffe6cc;rounded=1;fontSize=19;" vertex="1" parent="1">
          <mxGeometry x="150" y="320" width="120" height="60" as="geometry" />
        </mxCell>
        <mxCell id="ag0wjQPCO7RSuzlzPuYA-22" value="" style="endArrow=classic;startArrow=classic;html=1;exitX=1;exitY=0.5;exitDx=0;exitDy=0;entryX=0;entryY=0.5;entryDx=0;entryDy=0;fillColor=#ffe6cc;strokeColor=#d79b00;fontSize=19;" edge="1" parent="1" source="ag0wjQPCO7RSuzlzPuYA-8" target="ag0wjQPCO7RSuzlzPuYA-14">
          <mxGeometry width="50" height="50" relative="1" as="geometry">
            <mxPoint x="1040" y="480" as="sourcePoint" />
            <mxPoint x="1090" y="430" as="targetPoint" />
          </mxGeometry>
        </mxCell>
        <mxCell id="ag0wjQPCO7RSuzlzPuYA-23" value="&lt;font style=&quot;font-size: 20px&quot;&gt;医院基础信息数据被使用分布&lt;/font&gt;" style="text;html=1;strokeColor=none;fillColor=none;align=center;verticalAlign=middle;whiteSpace=wrap;rounded=0;" vertex="1" parent="1">
          <mxGeometry x="390" y="50" width="410" height="30" as="geometry" />
        </mxCell>
        <mxCell id="ag0wjQPCO7RSuzlzPuYA-24" value="" style="endArrow=none;html=1;" edge="1" parent="1">
          <mxGeometry width="50" height="50" relative="1" as="geometry">
            <mxPoint x="120" y="90" as="sourcePoint" />
            <mxPoint x="1120" y="90" as="targetPoint" />
          </mxGeometry>
        </mxCell>
        <mxCell id="ag0wjQPCO7RSuzlzPuYA-25" value="&lt;font color=&quot;#ff3333&quot;&gt;直接读库同步数据&lt;/font&gt;" style="text;html=1;strokeColor=none;fillColor=none;align=center;verticalAlign=middle;whiteSpace=wrap;rounded=0;fontSize=17;" vertex="1" parent="1">
          <mxGeometry x="440" y="440" width="40" height="20" as="geometry" />
        </mxCell>
        <mxCell id="ag0wjQPCO7RSuzlzPuYA-26" value="&lt;font color=&quot;#ff3333&quot;&gt;接口同步数据&lt;/font&gt;" style="text;html=1;strokeColor=none;fillColor=none;align=center;verticalAlign=middle;whiteSpace=wrap;rounded=0;fontSize=17;" vertex="1" parent="1">
          <mxGeometry x="550" y="300" width="165" height="20" as="geometry" />
        </mxCell>
        <mxCell id="ag0wjQPCO7RSuzlzPuYA-27" value="&lt;font color=&quot;#ff3333&quot;&gt;未使用&lt;/font&gt;" style="text;html=1;strokeColor=none;fillColor=none;align=center;verticalAlign=middle;whiteSpace=wrap;rounded=0;fontSize=17;" vertex="1" parent="1">
          <mxGeometry x="320" y="300" width="80" height="20" as="geometry" />
        </mxCell>
        <mxCell id="ag0wjQPCO7RSuzlzPuYA-28" value="EPP对账工具" style="whiteSpace=wrap;html=1;strokeColor=#d79b00;fillColor=#ffe6cc;rounded=1;fontSize=19;" vertex="1" parent="1">
          <mxGeometry x="430" y="660" width="120" height="60" as="geometry" />
        </mxCell>
        <mxCell id="ag0wjQPCO7RSuzlzPuYA-29" value="" style="endArrow=classic;startArrow=classic;html=1;fontSize=17;exitX=0.5;exitY=1;exitDx=0;exitDy=0;entryX=0.5;entryY=0;entryDx=0;entryDy=0;fillColor=#ffe6cc;strokeColor=#d79b00;" edge="1" parent="1" source="ag0wjQPCO7RSuzlzPuYA-10" target="ag0wjQPCO7RSuzlzPuYA-28">
          <mxGeometry width="50" height="50" relative="1" as="geometry">
            <mxPoint x="580" y="640" as="sourcePoint" />
            <mxPoint x="630" y="590" as="targetPoint" />
          </mxGeometry>
        </mxCell>
        <mxCell id="ag0wjQPCO7RSuzlzPuYA-30" value="&lt;font color=&quot;#ff3333&quot;&gt;复用仲谋中医院信息&lt;/font&gt;" style="text;html=1;strokeColor=none;fillColor=none;align=center;verticalAlign=middle;whiteSpace=wrap;rounded=0;fontSize=17;" vertex="1" parent="1">
          <mxGeometry x="410" y="610" width="190" height="20" as="geometry" />
        </mxCell>
      </root>
    </mxGraphModel>
  </diagram>
</mxfile>
